<?xml version="1.0" encoding="utf-8"?>
<!-- Generator: Adobe Illustrator 23.0.6, SVG Export Plug-In . SVG Version: 6.00 Build 0)  -->
<svg version="1.1" id="Layer_1" xmlns="http://www.w3.org/2000/svg" xmlns:xlink="http://www.w3.org/1999/xlink" x="0px" y="0px"
	 viewBox="0 0 698 698" style="enable-background:new 0 0 698 698;" xml:space="preserve">
<style type="text/css">
	.st0{fill:url(#SVGID_1_);}
	.st1{fill:#FFA500;}
</style>
<radialGradient id="SVGID_1_" cx="345.2705" cy="352.4" r="351.5515" gradientTransform="matrix(0.9885 0 0 -0.9832 10.1501 700.2797)" gradientUnits="userSpaceOnUse">
	<stop  offset="0" style="stop-color:#444444"/>
	<stop  offset="1" style="stop-color:#000C2A"/>
</radialGradient>
<path class="st0" d="M346.5,10.6h9.9c190.5,0,345,153.7,345,343.2l0,0c0,189.5-154.5,343.2-345,343.2h-9.9
	C156,697,1.5,543.3,1.5,353.8l0,0C1.5,164.3,155.9,10.6,346.5,10.6z"/>
<g>
	<path class="st1" d="M542.8,501.7l-92.9,93.4c-3.8,3.8-1,10.2,4.4,10.2l0,0c1.6,0,3.1-0.7,4.4-1.8l82.5-83.1
		c1.1-1.1,1.8-2.7,1.8-4.3L542.8,501.7z"/>
	<path class="st1" d="M532.7,547.6l-47,47.3c-3.8,3.8-1,10.2,4.4,10.2l0,0c1.6,0,3.1-0.7,4.4-1.8l46.8-47.2c1.1-1.1,1.8-2.7,1.8-4.3
		l0,0C543,546.5,536.5,543.9,532.7,547.6z"/>
	<polygon class="st1" points="542,358.9 452.3,449.3 452.4,461.4 448.6,452.8 382,519.9 387.4,531.6 542.1,376 	"/>
	<path class="st1" d="M416,593.3L416,593.3c2.9,5.9,10.9,7.3,15.6,2.4L542.7,483l-0.1-17.1L416,593.3z"/>
	<path class="st1" d="M251.7,452.8l-0.1-17.1l-88.2,88.7c-1.1,1.1-1.6,2.3-1.6,3.8v1.9c0,4.6,5.8,7.1,9.2,3.7L251.7,452.8z"/>
	<path class="st1" d="M250.7,274.4l-0.1-17.1L162.4,346c-1.1,1.1-1.6,2.3-1.6,3.8v1.9c0,4.6,5.8,7.1,9.2,3.7L250.7,274.4z"/>
	<path class="st1" d="M250.9,310.1l-0.1-17.1l-88.2,88.7c-1.1,1.1-1.6,2.3-1.6,3.8v1.9c0,4.6,5.8,7.1,9.2,3.7L250.9,310.1z"/>
	<path class="st1" d="M251.8,488.5l-0.1-17.1l-88.2,88.7c-1.1,1.1-1.6,2.3-1.6,3.8v1.9c0,4.6,5.8,7.1,9.2,3.7L251.8,488.5z"/>
	<path class="st1" d="M252,507.1l-88.2,88.7c-1.1,1.1-1.6,2.3-1.6,3.8v1.8c0,2.9,2.4,5.4,5.4,5.3l0,0c1.4,0,2.7-0.6,3.7-1.6L252,524
		L252,507.1L252,507.1z"/>
	<polygon class="st1" points="404.7,568.8 410.1,580.4 542.5,447.3 542.3,430.3 	"/>
	<path class="st1" d="M251.1,345.7l-0.1-17.1l-88.2,88.7c-1.1,1.1-1.6,2.3-1.6,3.8v1.9c0,4.6,5.8,7.1,9.2,3.7L251.1,345.7z"/>
	<polygon class="st1" points="450.4,92.5 450.5,109.4 478.3,81.5 461.2,81.6 	"/>
	<polygon class="st1" points="450.6,128.2 450.7,145.1 514.2,81.3 497.1,81.3 	"/>
	<path class="st1" d="M160.4,242.8v1.9c0,4.6,5.8,7.1,9.2,3.7l127.9-128.5l-5.3-11.6L162,239.2C160.9,240,160.4,241.5,160.4,242.8z"
		/>
	<path class="st1" d="M160.2,207.2v1.9c0,4.6,5.8,7.1,9.2,3.7L286.3,95.3L281,83.7L162,203.5C160.7,204.4,160.2,205.8,160.2,207.2z"
		/>
	<polygon class="st1" points="451.9,377.9 452,394.9 541.7,304.6 541.6,287.6 	"/>
	<polygon class="st1" points="451.7,342.2 451.9,359.2 541.5,268.9 541.5,252.1 	"/>
	<polygon class="st1" points="393.3,544.3 398.8,555.9 542.3,411.6 542.2,394.6 	"/>
	<polygon class="st1" points="451.5,306.5 451.7,323.5 541.3,233.2 541.2,216.3 	"/>
	<polygon class="st1" points="450.8,180.8 540.6,90.7 540.5,81.1 532.9,81.1 450.8,163.9 	"/>
	<path class="st1" d="M160.6,278.5v1.9c0,4.6,5.8,7.1,9.2,3.7l139-139.7l-5.3-11.6L162.1,274.9C161.1,275.7,160.6,277,160.6,278.5z"
		/>
	<polygon class="st1" points="541.1,180.6 451.4,270.8 451.5,287.8 541.1,197.7 	"/>
	<polygon class="st1" points="540.9,145 451.2,235.1 451.3,244.3 451.3,252.2 540.9,162 	"/>
	<polygon class="st1" points="364.7,482.6 431.9,414.9 426.8,403.2 359.2,470.9 	"/>
	<path class="st1" d="M252.4,578.6"/>
	<polygon class="st1" points="376,507.1 443,439.8 437.6,428 370.7,495.4 	"/>
	<path class="st1" d="M208.6,84.5l-47.3,47.6c-1.1,1.1-1.6,2.3-1.6,3.8v1.9c0,4.6,5.8,7.1,9.2,3.7L218.2,92c3.4-3.4,0.8-9.2-3.8-9.1
		h-2C210.9,82.9,209.7,83.4,208.6,84.5z"/>
	<path class="st1" d="M246.1,82.7l-84.7,85.1c-1.1,1.1-1.6,2.3-1.6,3.8v1.9c0,4.6,5.8,7.1,9.2,3.7l94.1-94.6L246.1,82.7z"/>
	<path class="st1" d="M207.2,604.9l45.1-45.3l-0.1-17.1l-54.5,54.8c-3.4,3.4-0.8,9.2,3.8,9.1h2C204.9,606.6,206.1,606.1,207.2,604.9
		z"/>
	<path class="st1" d="M314.5,157.3l-152.3,153c-1.1,1.1-1.6,2.3-1.6,3.8v1.9c0,4.6,5.8,7.1,9.2,3.7l80.7-81.1l-0.1-8.2l2.4,5.7
		l66.9-67.3L314.5,157.3z"/>
	<polygon class="st1" points="540.7,109.3 451,199.4 451.1,216.5 540.8,126.3 	"/>
	<polygon class="st1" points="325.8,181.8 258.5,249.6 263.4,261.6 331,193.6 	"/>
	<polygon class="st1" points="541.8,323.2 452.1,413.6 452.3,430.6 541.9,340.3 	"/>
	<polygon class="st1" points="370.7,280.2 302.7,348.7 308,360.3 376.1,291.9 	"/>
	<polygon class="st1" points="382,304.7 314,373 319.3,384.7 387.2,316.3 	"/>
	<polygon class="st1" points="393.2,329.2 325.3,397.6 330.6,409.2 398.6,341 	"/>
	<polygon class="st1" points="404.4,353.7 336.6,422.1 342.1,433.7 409.9,365.5 	"/>
	<polygon class="st1" points="415.7,378.4 348,446.4 353.4,458.2 421,390.1 	"/>
	<polygon class="st1" points="348.2,231 279.9,299.7 285.3,311.3 353.7,242.6 	"/>
	<path class="st1" d="M170.6,462.6l80.7-81.1l-0.1-17.1L163,453.1c-1.1,1.1-1.6,2.3-1.6,3.8v1.9
		C161.6,463.5,167.2,465.8,170.6,462.6z"/>
	<polygon class="st1" points="337,206.5 269.1,274.8 274,286.8 342.4,218.1 	"/>
	<polygon class="st1" points="359.5,255.5 291.2,324.2 296.7,335.8 364.9,267.3 	"/>
	<path class="st1" d="M170.8,498.3l80.7-81.1l-0.1-17.1l-88.2,88.7c-1.1,1.1-1.6,2.3-1.6,3.8v1.9
		C161.8,499.2,167.4,501.5,170.8,498.3z"/>
</g>
</svg>
